<svg xmlns="http://www.w3.org/2000/svg" width="120.197" height="184.2" viewBox="0 0 120.197 184.2">
  <g id="Group_11" data-name="Group 11" transform="translate(-731.174 -294.272)">
    <path id="Union_1" data-name="Union 1" d="M62.011,124.526V78.5l-2.017-2.232L57.978,78.5v46.023H0V74.363H.279l13.39-12.1L.279,50.164H0V0H57.978V45.972L59.995,48.2l2.017-2.232V0h57.978V50.164h-.279l-13.39,12.1,13.391,12.1h.279v50.164Z" transform="translate(731.382 353.946)" fill="#E60150" />
    <path id="Path_20" data-name="Path 20" d="M51.291-191.551c0-10.582-7.148-19.552-20.883-19.552H9.174v49.755H24.731v-10.021h5.536C41.27-171.369,51.291-179.708,51.291-191.551ZM24.731-185.1v-11.913h4.835c4.275,0,5.676,2.523,5.676,6.1a5.616,5.616,0,0,1-5.676,5.816Zm41.065.841c-9.46,0-16.118,4.905-16.118,12.053,0,9.6,6.657,11.423,12.614,11.423a10.471,10.471,0,0,0,8.479-4.2v3.644h15.7v-23.2c0-8.479-7.288-14.016-17.94-14.016-14.716,0-18.01,9.11-18.5,11.913l15.207,1.962c0-1.612,1.191-2.523,2.873-2.523,1.822,0,2.733,1.121,2.733,2.943Zm1.121,13.1c-1.051,0-2.383-.561-2.383-1.892,0-.631.28-2.242,2.943-2.242h3.434C70.912-173.681,69.441-171.159,66.918-171.159Zm45.27,9.811h15.838v-54.38H112.188v20.393a12.11,12.11,0,0,0-8.76-3.224c-10.021,0-15.767,8.059-15.767,19.061,0,10.862,5.887,18.851,15.627,18.851,4.2,0,7.568-1.4,8.9-3.364Zm-4.555-23.336c2.663,0,4.765,1.962,4.765,5.326,0,3.644-2.1,5.046-4.765,5.046-2.453,0-4.275-1.542-4.275-5.046C103.358-182.581,105.18-184.684,107.633-184.684Z" transform="translate(722 510)" fill="#E60150" />
  </g>
</svg>
